<?xml version="1.0" standalone="no"?>
<!DOCTYPE svg PUBLIC "-//W3C//DTD SVG 20010904//EN"
 "http://www.w3.org/TR/2001/REC-SVG-20010904/DTD/svg10.dtd">
<svg version="1.0" xmlns="http://www.w3.org/2000/svg"
 width="640.000000pt" height="487.000000pt" viewBox="0 0 640.000000 487.000000"
 preserveAspectRatio="xMidYMid meet">
<metadata>
Created by potrace 1.16, written by Peter Selinger 2001-2019
</metadata>
<g transform="translate(0.000000,487.000000) scale(0.100000,-0.100000)"
fill="#000000" stroke="none">
<path d="M1740 3947 c-190 -110 -529 -307 -755 -438 l-410 -237 -3 -880 -2
-881 92 -54 c51 -30 183 -106 293 -169 185 -107 361 -208 850 -491 105 -61
213 -123 240 -138 l50 -27 190 110 c105 61 253 146 330 191 309 178 451 261
468 272 15 11 -5 25 -155 111 -95 54 -179 97 -187 96 -7 -2 -61 -32 -120 -66
-94 -56 -373 -217 -488 -283 l-42 -24 -358 207 c-197 114 -383 222 -413 239
-30 18 -120 69 -200 115 -80 46 -157 91 -173 102 l-27 19 0 669 0 668 43 24
c23 14 161 93 307 178 622 359 783 452 804 461 21 10 89 -27 597 -320 315
-183 580 -331 589 -329 19 4 349 191 349 198 0 3 -120 74 -267 158 -147 84
-384 220 -527 303 -493 286 -725 419 -728 418 -1 -1 -157 -91 -347 -202z"/>
<path d="M4220 4036 c-107 -62 -333 -193 -502 -290 -170 -98 -308 -181 -308
-185 0 -3 78 -51 172 -105 l173 -99 60 32 c33 18 180 103 328 188 147 86 274
153 282 149 8 -3 105 -58 217 -122 503 -291 711 -411 820 -473 l117 -66 1
-677 0 -676 -172 -100 c-95 -54 -229 -132 -298 -172 -69 -40 -150 -86 -180
-103 -30 -16 -60 -33 -65 -38 -6 -4 -109 -64 -229 -134 l-220 -126 -220 127
c-122 70 -234 135 -251 144 -16 10 -111 64 -210 122 -99 57 -248 144 -331 191
l-151 87 -177 -101 c-97 -56 -175 -103 -174 -104 2 -1 111 -64 243 -140 132
-76 469 -271 750 -433 280 -162 514 -295 520 -295 5 0 84 43 175 95 183 106
494 285 640 370 52 30 196 114 320 185 124 71 262 151 308 177 l82 48 0 878 0
878 -172 100 c-95 55 -346 200 -558 322 -212 122 -468 270 -570 329 -102 60
-194 113 -205 119 -18 9 -50 -7 -215 -102z"/>
<path d="M6395 2910 c0 -261 1 -368 2 -238 2 131 2 345 0 475 -1 131 -2 24 -2
-237z"/>
<path d="M4245 3216 c-189 -39 -395 -178 -508 -342 -48 -69 -81 -137 -114
-231 -26 -73 -27 -89 -28 -253 0 -167 1 -179 28 -255 103 -289 322 -494 606
-566 115 -29 340 -24 446 11 239 77 448 261 526 462 12 29 25 62 29 73 19 47
29 87 41 173 15 108 2 253 -32 355 -23 70 -88 203 -115 237 -32 40 -108 124
-134 148 -76 72 -243 157 -370 188 -69 17 -293 17 -375 0z m315 -300 c101 -24
174 -65 250 -139 48 -46 63 -66 97 -128 44 -80 58 -142 57 -255 0 -103 -4
-121 -54 -231 -59 -128 -224 -250 -370 -274 -66 -11 -213 -5 -253 10 -12 5
-40 16 -62 25 -40 17 -42 17 -145 -18 -58 -19 -122 -37 -142 -41 -35 -7 -38
-6 -38 17 0 13 4 28 8 33 4 6 13 26 19 45 6 19 21 67 33 106 l24 71 -21 44
c-35 73 -46 129 -45 229 0 103 11 150 61 248 52 104 189 214 311 250 80 24
190 27 270 8z"/>
<path d="M4330 2818 c-19 -5 -39 -14 -44 -19 -6 -5 -16 -9 -24 -9 -17 0 -142
-87 -142 -99 0 -4 -9 -17 -19 -28 -94 -101 -114 -316 -42 -456 29 -57 33 -101
11 -132 -4 -5 -10 -22 -14 -37 -8 -34 5 -36 83 -9 l53 19 67 -31 c62 -29 74
-31 181 -32 110 0 118 1 182 33 297 145 334 530 70 735 -29 22 -97 53 -147 66
-49 13 -168 13 -215 -1z m-32 -195 c11 -10 28 -42 38 -71 18 -51 18 -55 1 -84
-9 -16 -17 -37 -17 -47 0 -33 130 -141 169 -141 6 0 24 14 41 31 34 36 49 35
123 -7 51 -28 57 -46 33 -93 -59 -113 -262 -70 -405 85 -90 98 -129 186 -112
252 14 52 47 81 102 91 4 0 16 -7 27 -16z"/>
<path d="M1735 3005 l-350 -203 -3 -410 -2 -411 62 -37 c35 -20 153 -89 263
-152 110 -63 241 -139 292 -169 l92 -54 53 29 c44 25 153 87 413 238 22 13 86
50 142 81 l103 58 -1 415 0 415 -353 203 c-194 111 -355 202 -357 201 -2 0
-161 -92 -354 -204z"/>
</g>
</svg>
